# xmcd
#
# Track frame offsets:
#	150
#	32771
#	55876
#	79401
#	100108
#	120316
#	151638
#
# Disc length: 2472 seconds
#
# Revision: 2
# Processed by: cddbd v1.5.2PL0 Copyright (c) Steve Scherf et al.
# Submitted via: audiograbber 1.83.01
#
DISCID=4809a607
DTITLE=Bonnie Bishop - The Walk
DYEAR=2017
DGENRE=Country
TTITLE0=Love Revolution
TTITLE1=Keep on Moving
TTITLE2=The Walk
TTITLE3=Every Happiness Under the Sun
TTITLE4=I Don't Like to Be Alone
TTITLE5=Women at the Well
TTITLE6=Song Don't Fail Me Now
EXTD=
EXTT0=
EXTT1=
EXTT2=
EXTT3=
EXTT4=
EXTT5=
EXTT6=
PLAYORDER=
